<mxfile host="app.diagrams.net" agent="Mozilla/5.0 (Windows NT 10.0; Win64; x64) AppleWebKit/537.36 (KHTML, like Gecko) Chrome/137.0.0.0 Safari/537.36" version="27.1.4">
  <diagram name="第 1 页" id="TJO86PZpqBDna9J1uv8z">
    <mxGraphModel dx="2381" dy="807" grid="1" gridSize="10" guides="1" tooltips="1" connect="1" arrows="1" fold="1" page="1" pageScale="1" pageWidth="827" pageHeight="1169" math="0" shadow="0">
      <root>
        <mxCell id="0" />
        <mxCell id="1" parent="0" />
        <mxCell id="7q78oG7grNPgOwieNx3w-1" value="BPM" style="rounded=1;whiteSpace=wrap;html=1;fillColor=#f5f5f5;fontColor=#333333;strokeColor=#666666;fontSize=18;" parent="1" vertex="1">
          <mxGeometry x="40" y="41" width="90" height="60" as="geometry" />
        </mxCell>
        <mxCell id="7q78oG7grNPgOwieNx3w-2" value="数&amp;nbsp; 据&amp;nbsp; 中&amp;nbsp; 台" style="rounded=1;whiteSpace=wrap;html=1;fillColor=#0050ef;fontColor=#ffffff;strokeColor=#001DBC;fontSize=22;glass=1;" parent="1" vertex="1">
          <mxGeometry x="-80" y="342" width="950" height="60" as="geometry" />
        </mxCell>
        <mxCell id="7q78oG7grNPgOwieNx3w-3" value="合同" style="text;html=1;align=center;verticalAlign=middle;resizable=0;points=[];autosize=1;strokeColor=none;fillColor=none;fontSize=14;" parent="1" vertex="1">
          <mxGeometry x="160" y="69" width="50" height="30" as="geometry" />
        </mxCell>
        <mxCell id="7q78oG7grNPgOwieNx3w-4" value="低代码" style="rounded=1;whiteSpace=wrap;html=1;fillColor=#dae8fc;strokeColor=#6c8ebf;fontSize=18;" parent="1" vertex="1">
          <mxGeometry x="165" y="41" width="90" height="60" as="geometry" />
        </mxCell>
        <mxCell id="7q78oG7grNPgOwieNx3w-5" value="合同&lt;div&gt;大仪论证&lt;/div&gt;&lt;div&gt;仪器借用&lt;/div&gt;&lt;div&gt;用餐&lt;br&gt;&lt;div&gt;&lt;br&gt;&lt;/div&gt;&lt;/div&gt;" style="text;html=1;align=center;verticalAlign=middle;resizable=0;points=[];autosize=1;strokeColor=none;fillColor=none;fontSize=16;" parent="1" vertex="1">
          <mxGeometry x="40" y="136" width="90" height="110" as="geometry" />
        </mxCell>
        <mxCell id="7q78oG7grNPgOwieNx3w-9" value="合同" style="text;html=1;align=center;verticalAlign=middle;resizable=0;points=[];autosize=1;strokeColor=none;fillColor=none;fontSize=14;" parent="1" vertex="1">
          <mxGeometry x="280" y="69" width="50" height="30" as="geometry" />
        </mxCell>
        <mxCell id="7q78oG7grNPgOwieNx3w-10" value="" style="edgeStyle=orthogonalEdgeStyle;rounded=0;orthogonalLoop=1;jettySize=auto;html=1;fillColor=#d5e8d4;strokeColor=#82b366;" parent="1" source="7q78oG7grNPgOwieNx3w-11" target="7q78oG7grNPgOwieNx3w-16" edge="1">
          <mxGeometry relative="1" as="geometry" />
        </mxCell>
        <mxCell id="7q78oG7grNPgOwieNx3w-11" value="采购" style="rounded=1;whiteSpace=wrap;html=1;fillColor=#d5e8d4;strokeColor=#82b366;fontSize=18;" parent="1" vertex="1">
          <mxGeometry x="285" y="41" width="90" height="60" as="geometry" />
        </mxCell>
        <mxCell id="7q78oG7grNPgOwieNx3w-15" value="合同" style="text;html=1;align=center;verticalAlign=middle;resizable=0;points=[];autosize=1;strokeColor=none;fillColor=none;fontSize=14;" parent="1" vertex="1">
          <mxGeometry x="400" y="68" width="50" height="30" as="geometry" />
        </mxCell>
        <mxCell id="7q78oG7grNPgOwieNx3w-16" value="资产" style="rounded=1;whiteSpace=wrap;html=1;fillColor=#ffe6cc;strokeColor=#d79b00;fontSize=18;" parent="1" vertex="1">
          <mxGeometry x="405" y="40" width="90" height="60" as="geometry" />
        </mxCell>
        <mxCell id="7q78oG7grNPgOwieNx3w-20" value="合同" style="text;html=1;align=center;verticalAlign=middle;resizable=0;points=[];autosize=1;strokeColor=none;fillColor=none;fontSize=14;" parent="1" vertex="1">
          <mxGeometry x="520" y="68" width="50" height="30" as="geometry" />
        </mxCell>
        <mxCell id="7q78oG7grNPgOwieNx3w-21" value="财务" style="rounded=1;whiteSpace=wrap;html=1;fillColor=#fff2cc;strokeColor=#d6b656;fontSize=18;" parent="1" vertex="1">
          <mxGeometry x="525" y="40" width="90" height="60" as="geometry" />
        </mxCell>
        <mxCell id="7q78oG7grNPgOwieNx3w-24" value="合同" style="text;html=1;align=center;verticalAlign=middle;resizable=0;points=[];autosize=1;strokeColor=none;fillColor=none;fontSize=14;" parent="1" vertex="1">
          <mxGeometry x="640" y="68" width="50" height="30" as="geometry" />
        </mxCell>
        <mxCell id="7q78oG7grNPgOwieNx3w-25" value="大仪" style="rounded=1;whiteSpace=wrap;html=1;fillColor=#f8cecc;strokeColor=#b85450;fontSize=18;" parent="1" vertex="1">
          <mxGeometry x="645" y="40" width="90" height="60" as="geometry" />
        </mxCell>
        <mxCell id="7q78oG7grNPgOwieNx3w-29" value="合同" style="text;html=1;align=center;verticalAlign=middle;resizable=0;points=[];autosize=1;strokeColor=none;fillColor=none;fontSize=14;" parent="1" vertex="1">
          <mxGeometry x="762" y="68" width="50" height="30" as="geometry" />
        </mxCell>
        <mxCell id="7q78oG7grNPgOwieNx3w-30" value="合同内控" style="rounded=1;whiteSpace=wrap;html=1;fillColor=#e1d5e7;strokeColor=#9673a6;fontSize=18;" parent="1" vertex="1">
          <mxGeometry x="767" y="40" width="90" height="60" as="geometry" />
        </mxCell>
        <mxCell id="7q78oG7grNPgOwieNx3w-34" style="edgeStyle=orthogonalEdgeStyle;rounded=0;orthogonalLoop=1;jettySize=auto;html=1;" parent="1" source="7q78oG7grNPgOwieNx3w-1" edge="1">
          <mxGeometry relative="1" as="geometry">
            <mxPoint x="85" y="340" as="targetPoint" />
          </mxGeometry>
        </mxCell>
        <mxCell id="7q78oG7grNPgOwieNx3w-35" value="财务" style="text;html=1;align=center;verticalAlign=middle;resizable=0;points=[];autosize=1;strokeColor=none;fillColor=default;fontSize=16;" parent="1" vertex="1">
          <mxGeometry x="506" y="140" width="60" height="30" as="geometry" />
        </mxCell>
        <mxCell id="7q78oG7grNPgOwieNx3w-36" style="edgeStyle=orthogonalEdgeStyle;rounded=0;orthogonalLoop=1;jettySize=auto;html=1;fillColor=#f5f5f5;strokeColor=#666666;" parent="1" edge="1">
          <mxGeometry relative="1" as="geometry">
            <mxPoint x="546" y="340" as="sourcePoint" />
            <mxPoint x="546" y="100" as="targetPoint" />
          </mxGeometry>
        </mxCell>
        <mxCell id="7q78oG7grNPgOwieNx3w-37" value="bpm合同" style="text;html=1;align=center;verticalAlign=middle;resizable=0;points=[];autosize=1;strokeColor=none;fillColor=none;fontSize=16;" parent="1" vertex="1">
          <mxGeometry x="512" y="202" width="90" height="30" as="geometry" />
        </mxCell>
        <mxCell id="7q78oG7grNPgOwieNx3w-38" style="edgeStyle=orthogonalEdgeStyle;rounded=0;orthogonalLoop=1;jettySize=auto;html=1;fillColor=#d5e8d4;strokeColor=#82b366;" parent="1" edge="1">
          <mxGeometry relative="1" as="geometry">
            <mxPoint x="562" y="340" as="sourcePoint" />
            <mxPoint x="562" y="100" as="targetPoint" />
          </mxGeometry>
        </mxCell>
        <mxCell id="7q78oG7grNPgOwieNx3w-39" value="采购合同" style="text;html=1;align=center;verticalAlign=middle;resizable=0;points=[];autosize=1;strokeColor=none;fillColor=none;fontSize=16;" parent="1" vertex="1">
          <mxGeometry x="520" y="228" width="90" height="30" as="geometry" />
        </mxCell>
        <mxCell id="7q78oG7grNPgOwieNx3w-7" value="" style="edgeStyle=orthogonalEdgeStyle;rounded=0;orthogonalLoop=1;jettySize=auto;html=1;entryX=0.057;entryY=0.027;entryDx=0;entryDy=0;entryPerimeter=0;fillColor=#dae8fc;strokeColor=#6c8ebf;" parent="1" source="7q78oG7grNPgOwieNx3w-4" edge="1">
          <mxGeometry relative="1" as="geometry">
            <mxPoint x="209" y="342" as="targetPoint" />
          </mxGeometry>
        </mxCell>
        <mxCell id="7q78oG7grNPgOwieNx3w-8" value="&lt;div&gt;兼职&lt;/div&gt;用餐" style="text;html=1;align=center;verticalAlign=middle;resizable=0;points=[];autosize=1;strokeColor=none;fillColor=none;fontSize=16;" parent="1" vertex="1">
          <mxGeometry x="182" y="132" width="60" height="50" as="geometry" />
        </mxCell>
        <mxCell id="7q78oG7grNPgOwieNx3w-13" value="" style="edgeStyle=orthogonalEdgeStyle;rounded=0;orthogonalLoop=1;jettySize=auto;html=1;entryX=0.057;entryY=0.027;entryDx=0;entryDy=0;entryPerimeter=0;fillColor=#d5e8d4;strokeColor=#82b366;" parent="1" edge="1">
          <mxGeometry relative="1" as="geometry">
            <mxPoint x="305" y="342" as="targetPoint" />
            <mxPoint x="306" y="101" as="sourcePoint" />
          </mxGeometry>
        </mxCell>
        <mxCell id="7q78oG7grNPgOwieNx3w-14" value="采购" style="text;html=1;align=center;verticalAlign=middle;resizable=0;points=[];autosize=1;strokeColor=none;fillColor=none;fontSize=16;" parent="1" vertex="1">
          <mxGeometry x="277" y="141" width="60" height="30" as="geometry" />
        </mxCell>
        <mxCell id="7q78oG7grNPgOwieNx3w-18" value="" style="edgeStyle=orthogonalEdgeStyle;rounded=0;orthogonalLoop=1;jettySize=auto;html=1;entryX=0.057;entryY=0.027;entryDx=0;entryDy=0;entryPerimeter=0;fillColor=#ffe6cc;strokeColor=#d79b00;" parent="1" edge="1">
          <mxGeometry relative="1" as="geometry">
            <mxPoint x="413" y="341" as="targetPoint" />
            <mxPoint x="414" y="100" as="sourcePoint" />
            <Array as="points">
              <mxPoint x="413" y="100" />
            </Array>
          </mxGeometry>
        </mxCell>
        <mxCell id="7q78oG7grNPgOwieNx3w-19" value="资产" style="text;html=1;align=center;verticalAlign=middle;resizable=0;points=[];autosize=1;strokeColor=none;fillColor=none;fontSize=16;" parent="1" vertex="1">
          <mxGeometry x="386" y="140" width="60" height="30" as="geometry" />
        </mxCell>
        <mxCell id="7q78oG7grNPgOwieNx3w-27" value="" style="edgeStyle=orthogonalEdgeStyle;rounded=0;orthogonalLoop=1;jettySize=auto;html=1;entryX=0.057;entryY=0.027;entryDx=0;entryDy=0;entryPerimeter=0;fillColor=#f8cecc;strokeColor=#b85450;" parent="1" edge="1">
          <mxGeometry relative="1" as="geometry">
            <mxPoint x="655" y="341" as="targetPoint" />
            <mxPoint x="656" y="100" as="sourcePoint" />
            <Array as="points">
              <mxPoint x="655" y="100" />
            </Array>
          </mxGeometry>
        </mxCell>
        <mxCell id="7q78oG7grNPgOwieNx3w-28" value="验收" style="text;html=1;align=center;verticalAlign=middle;resizable=0;points=[];autosize=1;strokeColor=none;fillColor=none;fontSize=16;" parent="1" vertex="1">
          <mxGeometry x="641" y="139" width="60" height="30" as="geometry" />
        </mxCell>
        <mxCell id="khLrELdHSYsUgajStxLo-1" style="edgeStyle=orthogonalEdgeStyle;rounded=0;orthogonalLoop=1;jettySize=auto;html=1;fillColor=#f5f5f5;strokeColor=#666666;" parent="1" edge="1">
          <mxGeometry relative="1" as="geometry">
            <mxPoint x="777" y="341" as="sourcePoint" />
            <mxPoint x="777" y="101" as="targetPoint" />
          </mxGeometry>
        </mxCell>
        <mxCell id="khLrELdHSYsUgajStxLo-2" value="bpm合同" style="text;html=1;align=center;verticalAlign=middle;resizable=0;points=[];autosize=1;strokeColor=none;fillColor=none;fontSize=16;" parent="1" vertex="1">
          <mxGeometry x="732" y="176" width="90" height="30" as="geometry" />
        </mxCell>
        <mxCell id="khLrELdHSYsUgajStxLo-3" style="edgeStyle=orthogonalEdgeStyle;rounded=0;orthogonalLoop=1;jettySize=auto;html=1;fillColor=#d5e8d4;strokeColor=#82b366;" parent="1" edge="1">
          <mxGeometry relative="1" as="geometry">
            <mxPoint x="799" y="340" as="sourcePoint" />
            <mxPoint x="799" y="100" as="targetPoint" />
          </mxGeometry>
        </mxCell>
        <mxCell id="khLrELdHSYsUgajStxLo-4" value="采购合同" style="text;html=1;align=center;verticalAlign=middle;resizable=0;points=[];autosize=1;strokeColor=none;fillColor=none;fontSize=16;" parent="1" vertex="1">
          <mxGeometry x="757" y="205" width="90" height="30" as="geometry" />
        </mxCell>
        <mxCell id="khLrELdHSYsUgajStxLo-5" style="edgeStyle=orthogonalEdgeStyle;rounded=0;orthogonalLoop=1;jettySize=auto;html=1;fillColor=#d5e8d4;strokeColor=#82b366;" parent="1" edge="1">
          <mxGeometry relative="1" as="geometry">
            <mxPoint x="820" y="340" as="sourcePoint" />
            <mxPoint x="820" y="100" as="targetPoint" />
          </mxGeometry>
        </mxCell>
        <mxCell id="khLrELdHSYsUgajStxLo-6" value="大仪" style="text;html=1;align=center;verticalAlign=middle;resizable=0;points=[];autosize=1;strokeColor=none;fillColor=none;fontSize=16;" parent="1" vertex="1">
          <mxGeometry x="791" y="235" width="60" height="30" as="geometry" />
        </mxCell>
        <mxCell id="khLrELdHSYsUgajStxLo-9" value="智&amp;nbsp; 慧&amp;nbsp; 监&amp;nbsp; 督" style="html=1;fontSize=22;fillColor=#e3c800;strokeColor=#B09500;fontColor=#000000;rounded=1;glass=0;shadow=1;whiteSpace=wrap;" parent="1" vertex="1">
          <mxGeometry x="-80" y="644" width="420" height="60" as="geometry" />
        </mxCell>
        <mxCell id="khLrELdHSYsUgajStxLo-12" value="智&amp;nbsp; 能&amp;nbsp; 审&amp;nbsp; 计" style="whiteSpace=wrap;html=1;fontSize=22;fillColor=#ffcd28;strokeColor=#d79b00;rounded=1;glass=0;shadow=1;gradientColor=#ffa500;" parent="1" vertex="1">
          <mxGeometry x="450" y="644" width="420" height="60" as="geometry" />
        </mxCell>
        <mxCell id="khLrELdHSYsUgajStxLo-14" value="科研" style="rounded=1;whiteSpace=wrap;html=1;fillColor=#60a917;fontColor=#000000;strokeColor=#2D7600;fontSize=18;" parent="1" vertex="1">
          <mxGeometry x="-80" y="39" width="90" height="60" as="geometry" />
        </mxCell>
        <mxCell id="khLrELdHSYsUgajStxLo-15" value="项目" style="text;html=1;align=center;verticalAlign=middle;resizable=0;points=[];autosize=1;strokeColor=none;fillColor=none;fontSize=16;" parent="1" vertex="1">
          <mxGeometry x="-94" y="140" width="60" height="30" as="geometry" />
        </mxCell>
        <mxCell id="khLrELdHSYsUgajStxLo-16" style="edgeStyle=orthogonalEdgeStyle;rounded=0;orthogonalLoop=1;jettySize=auto;html=1;entryX=0.137;entryY=0.027;entryDx=0;entryDy=0;entryPerimeter=0;fillColor=#60a917;strokeColor=#2D7600;" parent="1" edge="1">
          <mxGeometry relative="1" as="geometry">
            <mxPoint x="-64" y="342" as="targetPoint" />
            <mxPoint x="-64" y="99" as="sourcePoint" />
          </mxGeometry>
        </mxCell>
        <mxCell id="khLrELdHSYsUgajStxLo-17" style="edgeStyle=orthogonalEdgeStyle;rounded=0;orthogonalLoop=1;jettySize=auto;html=1;fillColor=#fff2cc;strokeColor=#d6b656;" parent="1" edge="1">
          <mxGeometry relative="1" as="geometry">
            <mxPoint x="-10" y="340" as="sourcePoint" />
            <mxPoint x="-10" y="100" as="targetPoint" />
          </mxGeometry>
        </mxCell>
        <mxCell id="khLrELdHSYsUgajStxLo-18" value="财务" style="text;html=1;align=center;verticalAlign=middle;resizable=0;points=[];autosize=1;strokeColor=none;fillColor=none;fontSize=16;" parent="1" vertex="1">
          <mxGeometry x="-35" y="264" width="60" height="30" as="geometry" />
        </mxCell>
        <mxCell id="khLrELdHSYsUgajStxLo-19" style="edgeStyle=orthogonalEdgeStyle;rounded=0;orthogonalLoop=1;jettySize=auto;html=1;entryX=0.137;entryY=0.027;entryDx=0;entryDy=0;entryPerimeter=0;fillColor=#60a917;strokeColor=#2D7600;" parent="1" edge="1">
          <mxGeometry relative="1" as="geometry">
            <mxPoint x="579" y="98" as="targetPoint" />
            <mxPoint x="579" y="341" as="sourcePoint" />
          </mxGeometry>
        </mxCell>
        <mxCell id="khLrELdHSYsUgajStxLo-26" style="edgeStyle=orthogonalEdgeStyle;rounded=0;orthogonalLoop=1;jettySize=auto;html=1;fillColor=#d5e8d4;strokeColor=#82b366;" parent="1" edge="1">
          <mxGeometry relative="1" as="geometry">
            <mxPoint x="694" y="340" as="sourcePoint" />
            <mxPoint x="694" y="100" as="targetPoint" />
          </mxGeometry>
        </mxCell>
        <mxCell id="khLrELdHSYsUgajStxLo-27" value="采购合同" style="text;html=1;align=center;verticalAlign=middle;resizable=0;points=[];autosize=1;strokeColor=none;fillColor=none;fontSize=16;" parent="1" vertex="1">
          <mxGeometry x="654" y="205" width="90" height="30" as="geometry" />
        </mxCell>
        <mxCell id="7q78oG7grNPgOwieNx3w-23" value="" style="edgeStyle=orthogonalEdgeStyle;rounded=0;orthogonalLoop=1;jettySize=auto;html=1;entryX=0.057;entryY=0.027;entryDx=0;entryDy=0;entryPerimeter=0;fillColor=#fff2cc;strokeColor=#d6b656;" parent="1" edge="1">
          <mxGeometry relative="1" as="geometry">
            <mxPoint x="534" y="342" as="targetPoint" />
            <mxPoint x="535" y="100" as="sourcePoint" />
            <Array as="points">
              <mxPoint x="534" y="100" />
            </Array>
          </mxGeometry>
        </mxCell>
        <mxCell id="khLrELdHSYsUgajStxLo-20" value="科研项目" style="text;html=1;align=center;verticalAlign=middle;resizable=0;points=[];autosize=1;strokeColor=none;fillColor=none;fontSize=16;" parent="1" vertex="1">
          <mxGeometry x="533" y="252" width="90" height="30" as="geometry" />
        </mxCell>
        <mxCell id="khLrELdHSYsUgajStxLo-28" value="" style="edgeStyle=orthogonalEdgeStyle;rounded=0;orthogonalLoop=1;jettySize=auto;html=1;fillColor=#dae8fc;strokeColor=#6c8ebf;entryX=0.833;entryY=1;entryDx=0;entryDy=0;entryPerimeter=0;" parent="1" edge="1">
          <mxGeometry relative="1" as="geometry">
            <mxPoint x="593.4899999999998" y="99" as="targetPoint" />
            <mxPoint x="593.52" y="344" as="sourcePoint" />
            <Array as="points">
              <mxPoint x="593.52" y="222" />
              <mxPoint x="594.52" y="222" />
            </Array>
          </mxGeometry>
        </mxCell>
        <mxCell id="khLrELdHSYsUgajStxLo-29" value="用餐" style="text;html=1;align=center;verticalAlign=middle;resizable=0;points=[];autosize=1;strokeColor=none;fillColor=none;fontSize=16;" parent="1" vertex="1">
          <mxGeometry x="564" y="272" width="60" height="30" as="geometry" />
        </mxCell>
        <mxCell id="khLrELdHSYsUgajStxLo-33" value="" style="edgeStyle=orthogonalEdgeStyle;rounded=0;orthogonalLoop=1;jettySize=auto;html=1;entryX=0.057;entryY=0.027;entryDx=0;entryDy=0;entryPerimeter=0;fillColor=#f8cecc;strokeColor=#b85450;" parent="1" edge="1">
          <mxGeometry relative="1" as="geometry">
            <mxPoint x="465" y="100.5" as="targetPoint" />
            <mxPoint x="464" y="341.5" as="sourcePoint" />
            <Array as="points">
              <mxPoint x="464" y="100.5" />
            </Array>
          </mxGeometry>
        </mxCell>
        <mxCell id="khLrELdHSYsUgajStxLo-34" value="大仪" style="text;html=1;align=center;verticalAlign=middle;resizable=0;points=[];autosize=1;strokeColor=none;fillColor=none;fontSize=16;" parent="1" vertex="1">
          <mxGeometry x="435" y="252" width="60" height="30" as="geometry" />
        </mxCell>
        <mxCell id="khLrELdHSYsUgajStxLo-36" value="" style="edgeStyle=orthogonalEdgeStyle;rounded=0;orthogonalLoop=1;jettySize=auto;html=1;entryX=0.057;entryY=0.027;entryDx=0;entryDy=0;entryPerimeter=0;fillColor=#ffe6cc;strokeColor=#d79b00;" parent="1" edge="1">
          <mxGeometry relative="1" as="geometry">
            <mxPoint x="711" y="101" as="targetPoint" />
            <mxPoint x="710" y="342" as="sourcePoint" />
            <Array as="points">
              <mxPoint x="710" y="101" />
            </Array>
          </mxGeometry>
        </mxCell>
        <mxCell id="khLrELdHSYsUgajStxLo-37" value="资产" style="text;html=1;align=center;verticalAlign=middle;resizable=0;points=[];autosize=1;strokeColor=none;fillColor=none;fontSize=16;" parent="1" vertex="1">
          <mxGeometry x="681" y="235" width="60" height="30" as="geometry" />
        </mxCell>
        <mxCell id="khLrELdHSYsUgajStxLo-38" style="edgeStyle=orthogonalEdgeStyle;rounded=0;orthogonalLoop=1;jettySize=auto;html=1;fillColor=#fff2cc;strokeColor=#d6b656;" parent="1" edge="1">
          <mxGeometry relative="1" as="geometry">
            <mxPoint x="727" y="340" as="sourcePoint" />
            <mxPoint x="727" y="100" as="targetPoint" />
          </mxGeometry>
        </mxCell>
        <mxCell id="khLrELdHSYsUgajStxLo-39" value="财务" style="text;html=1;align=center;verticalAlign=middle;resizable=0;points=[];autosize=1;strokeColor=none;fillColor=none;fontSize=16;" parent="1" vertex="1">
          <mxGeometry x="702" y="264" width="60" height="30" as="geometry" />
        </mxCell>
        <mxCell id="khLrELdHSYsUgajStxLo-40" style="edgeStyle=orthogonalEdgeStyle;rounded=0;orthogonalLoop=1;jettySize=auto;html=1;fillColor=#fff2cc;strokeColor=#d6b656;" parent="1" edge="1">
          <mxGeometry relative="1" as="geometry">
            <mxPoint x="845" y="341" as="sourcePoint" />
            <mxPoint x="845" y="101" as="targetPoint" />
          </mxGeometry>
        </mxCell>
        <mxCell id="khLrELdHSYsUgajStxLo-41" value="财务" style="text;html=1;align=center;verticalAlign=middle;resizable=0;points=[];autosize=1;strokeColor=none;fillColor=none;fontSize=16;" parent="1" vertex="1">
          <mxGeometry x="817" y="265" width="60" height="30" as="geometry" />
        </mxCell>
        <mxCell id="khLrELdHSYsUgajStxLo-42" value="" style="edgeStyle=orthogonalEdgeStyle;rounded=0;orthogonalLoop=1;jettySize=auto;html=1;entryX=0.057;entryY=0.027;entryDx=0;entryDy=0;entryPerimeter=0;fillColor=#f8cecc;strokeColor=#b85450;" parent="1" edge="1">
          <mxGeometry relative="1" as="geometry">
            <mxPoint x="610" y="100" as="targetPoint" />
            <mxPoint x="609" y="341" as="sourcePoint" />
            <Array as="points">
              <mxPoint x="609" y="100" />
            </Array>
          </mxGeometry>
        </mxCell>
        <mxCell id="khLrELdHSYsUgajStxLo-43" value="结算" style="text;html=1;align=center;verticalAlign=middle;resizable=0;points=[];autosize=1;strokeColor=none;fillColor=none;fontSize=16;" parent="1" vertex="1">
          <mxGeometry x="580" y="297.5" width="60" height="30" as="geometry" />
        </mxCell>
        <mxCell id="khLrELdHSYsUgajStxLo-44" value="财务" style="text;html=1;align=center;verticalAlign=middle;resizable=0;points=[];autosize=1;strokeColor=none;fillColor=default;fontSize=16;" parent="1" vertex="1">
          <mxGeometry x="28" y="443" width="60" height="30" as="geometry" />
        </mxCell>
        <mxCell id="khLrELdHSYsUgajStxLo-45" value="" style="edgeStyle=orthogonalEdgeStyle;rounded=0;orthogonalLoop=1;jettySize=auto;html=1;entryX=0.057;entryY=0.027;entryDx=0;entryDy=0;entryPerimeter=0;fillColor=#fff2cc;strokeColor=#d6b656;" parent="1" edge="1">
          <mxGeometry relative="1" as="geometry">
            <mxPoint x="56" y="645" as="targetPoint" />
            <mxPoint x="57" y="403" as="sourcePoint" />
            <Array as="points">
              <mxPoint x="56" y="403" />
            </Array>
          </mxGeometry>
        </mxCell>
        <mxCell id="khLrELdHSYsUgajStxLo-46" value="财务" style="text;html=1;align=center;verticalAlign=middle;resizable=0;points=[];autosize=1;strokeColor=none;fillColor=default;fontSize=16;" parent="1" vertex="1">
          <mxGeometry x="571" y="442" width="60" height="30" as="geometry" />
        </mxCell>
        <mxCell id="khLrELdHSYsUgajStxLo-47" value="" style="edgeStyle=orthogonalEdgeStyle;rounded=0;orthogonalLoop=1;jettySize=auto;html=1;entryX=0.057;entryY=0.027;entryDx=0;entryDy=0;entryPerimeter=0;fillColor=#fff2cc;strokeColor=#d6b656;" parent="1" edge="1">
          <mxGeometry relative="1" as="geometry">
            <mxPoint x="599" y="644" as="targetPoint" />
            <mxPoint x="600" y="402" as="sourcePoint" />
            <Array as="points">
              <mxPoint x="599" y="402" />
            </Array>
          </mxGeometry>
        </mxCell>
        <mxCell id="khLrELdHSYsUgajStxLo-48" value="项目" style="text;html=1;align=center;verticalAlign=middle;resizable=0;points=[];autosize=1;strokeColor=none;fillColor=none;fontSize=16;" parent="1" vertex="1">
          <mxGeometry x="-24" y="443" width="60" height="30" as="geometry" />
        </mxCell>
        <mxCell id="khLrELdHSYsUgajStxLo-49" style="edgeStyle=orthogonalEdgeStyle;rounded=0;orthogonalLoop=1;jettySize=auto;html=1;entryX=0.137;entryY=0.027;entryDx=0;entryDy=0;entryPerimeter=0;fillColor=#60a917;strokeColor=#2D7600;" parent="1" edge="1">
          <mxGeometry relative="1" as="geometry">
            <mxPoint x="6" y="645" as="targetPoint" />
            <mxPoint x="6" y="402" as="sourcePoint" />
          </mxGeometry>
        </mxCell>
        <mxCell id="khLrELdHSYsUgajStxLo-50" value="项目" style="text;html=1;align=center;verticalAlign=middle;resizable=0;points=[];autosize=1;strokeColor=none;fillColor=none;fontSize=16;" parent="1" vertex="1">
          <mxGeometry x="519" y="443" width="60" height="30" as="geometry" />
        </mxCell>
        <mxCell id="khLrELdHSYsUgajStxLo-51" style="edgeStyle=orthogonalEdgeStyle;rounded=0;orthogonalLoop=1;jettySize=auto;html=1;entryX=0.137;entryY=0.027;entryDx=0;entryDy=0;entryPerimeter=0;fillColor=#60a917;strokeColor=#2D7600;" parent="1" edge="1">
          <mxGeometry relative="1" as="geometry">
            <mxPoint x="549" y="645" as="targetPoint" />
            <mxPoint x="549" y="402" as="sourcePoint" />
          </mxGeometry>
        </mxCell>
        <mxCell id="khLrELdHSYsUgajStxLo-52" value="" style="edgeStyle=orthogonalEdgeStyle;rounded=0;orthogonalLoop=1;jettySize=auto;html=1;entryX=0.057;entryY=0.027;entryDx=0;entryDy=0;entryPerimeter=0;fillColor=#ffe6cc;strokeColor=#d79b00;" parent="1" edge="1">
          <mxGeometry relative="1" as="geometry">
            <mxPoint x="696" y="643" as="targetPoint" />
            <mxPoint x="697" y="402" as="sourcePoint" />
            <Array as="points">
              <mxPoint x="696" y="402" />
            </Array>
          </mxGeometry>
        </mxCell>
        <mxCell id="khLrELdHSYsUgajStxLo-53" value="资产" style="text;html=1;align=center;verticalAlign=middle;resizable=0;points=[];autosize=1;strokeColor=none;fillColor=none;fontSize=16;" parent="1" vertex="1">
          <mxGeometry x="668" y="442" width="60" height="30" as="geometry" />
        </mxCell>
        <mxCell id="khLrELdHSYsUgajStxLo-54" style="edgeStyle=orthogonalEdgeStyle;rounded=0;orthogonalLoop=1;jettySize=auto;html=1;" parent="1" edge="1">
          <mxGeometry relative="1" as="geometry">
            <mxPoint x="747.5" y="405" as="sourcePoint" />
            <mxPoint x="747.5" y="644" as="targetPoint" />
          </mxGeometry>
        </mxCell>
        <mxCell id="khLrELdHSYsUgajStxLo-55" value="合同&lt;div&gt;&lt;span style=&quot;background-color: transparent; color: light-dark(rgb(0, 0, 0), rgb(255, 255, 255));&quot;&gt;仪器借用&lt;/span&gt;&lt;/div&gt;&lt;div&gt;&lt;span style=&quot;background-color: transparent; color: light-dark(rgb(0, 0, 0), rgb(255, 255, 255));&quot;&gt;用餐&lt;/span&gt;&lt;/div&gt;&lt;div&gt;&lt;span style=&quot;background-color: transparent; color: light-dark(rgb(0, 0, 0), rgb(255, 255, 255));&quot;&gt;&lt;br&gt;&lt;/span&gt;&lt;/div&gt;" style="text;html=1;align=center;verticalAlign=middle;resizable=0;points=[];autosize=1;strokeColor=none;fillColor=none;fontSize=16;" parent="1" vertex="1">
          <mxGeometry x="702" y="440" width="90" height="90" as="geometry" />
        </mxCell>
        <mxCell id="khLrELdHSYsUgajStxLo-58" value="" style="edgeStyle=orthogonalEdgeStyle;rounded=0;orthogonalLoop=1;jettySize=auto;html=1;entryX=0.057;entryY=0.027;entryDx=0;entryDy=0;entryPerimeter=0;fillColor=#d5e8d4;strokeColor=#82b366;" parent="1" edge="1">
          <mxGeometry relative="1" as="geometry">
            <mxPoint x="641" y="643" as="targetPoint" />
            <mxPoint x="642" y="402" as="sourcePoint" />
            <Array as="points">
              <mxPoint x="641" y="402" />
            </Array>
          </mxGeometry>
        </mxCell>
        <mxCell id="khLrELdHSYsUgajStxLo-59" value="采购" style="text;html=1;align=center;verticalAlign=middle;resizable=0;points=[];autosize=1;strokeColor=none;fillColor=none;fontSize=16;" parent="1" vertex="1">
          <mxGeometry x="613" y="442" width="60" height="30" as="geometry" />
        </mxCell>
        <mxCell id="khLrELdHSYsUgajStxLo-63" value="" style="edgeStyle=orthogonalEdgeStyle;rounded=0;orthogonalLoop=1;jettySize=auto;html=1;entryX=0.057;entryY=0.027;entryDx=0;entryDy=0;entryPerimeter=0;fillColor=#ffe6cc;strokeColor=#d79b00;" parent="1" edge="1">
          <mxGeometry relative="1" as="geometry">
            <mxPoint x="171" y="644" as="targetPoint" />
            <mxPoint x="172" y="403" as="sourcePoint" />
            <Array as="points">
              <mxPoint x="171" y="403" />
            </Array>
          </mxGeometry>
        </mxCell>
        <mxCell id="khLrELdHSYsUgajStxLo-64" value="资产" style="text;html=1;align=center;verticalAlign=middle;resizable=0;points=[];autosize=1;strokeColor=none;fillColor=none;fontSize=16;" parent="1" vertex="1">
          <mxGeometry x="143" y="443" width="60" height="30" as="geometry" />
        </mxCell>
        <mxCell id="khLrELdHSYsUgajStxLo-65" style="edgeStyle=orthogonalEdgeStyle;rounded=0;orthogonalLoop=1;jettySize=auto;html=1;" parent="1" edge="1">
          <mxGeometry relative="1" as="geometry">
            <mxPoint x="222.5" y="406" as="sourcePoint" />
            <mxPoint x="222.5" y="645" as="targetPoint" />
          </mxGeometry>
        </mxCell>
        <mxCell id="khLrELdHSYsUgajStxLo-66" value="合同&lt;div&gt;&lt;span style=&quot;background-color: transparent; color: light-dark(rgb(0, 0, 0), rgb(255, 255, 255));&quot;&gt;仪器借用&lt;/span&gt;&lt;/div&gt;&lt;div&gt;&lt;span style=&quot;background-color: transparent; color: light-dark(rgb(0, 0, 0), rgb(255, 255, 255));&quot;&gt;用餐&lt;/span&gt;&lt;/div&gt;&lt;div&gt;&lt;span style=&quot;background-color: transparent; color: light-dark(rgb(0, 0, 0), rgb(255, 255, 255));&quot;&gt;&lt;br&gt;&lt;/span&gt;&lt;/div&gt;" style="text;html=1;align=center;verticalAlign=middle;resizable=0;points=[];autosize=1;strokeColor=none;fillColor=none;fontSize=16;" parent="1" vertex="1">
          <mxGeometry x="177" y="441" width="90" height="90" as="geometry" />
        </mxCell>
        <mxCell id="khLrELdHSYsUgajStxLo-67" value="" style="edgeStyle=orthogonalEdgeStyle;rounded=0;orthogonalLoop=1;jettySize=auto;html=1;entryX=0.057;entryY=0.027;entryDx=0;entryDy=0;entryPerimeter=0;fillColor=#d5e8d4;strokeColor=#82b366;" parent="1" edge="1">
          <mxGeometry relative="1" as="geometry">
            <mxPoint x="116" y="644" as="targetPoint" />
            <mxPoint x="117" y="403" as="sourcePoint" />
            <Array as="points">
              <mxPoint x="116" y="403" />
            </Array>
          </mxGeometry>
        </mxCell>
        <mxCell id="khLrELdHSYsUgajStxLo-68" value="采购" style="text;html=1;align=center;verticalAlign=middle;resizable=0;points=[];autosize=1;strokeColor=none;fillColor=none;fontSize=16;" parent="1" vertex="1">
          <mxGeometry x="88" y="443" width="60" height="30" as="geometry" />
        </mxCell>
        <mxCell id="aAf2rK8Xe-hU0H-5XGB--1" style="edgeStyle=orthogonalEdgeStyle;rounded=0;orthogonalLoop=1;jettySize=auto;html=1;fillColor=#f5f5f5;strokeColor=#666666;" parent="1" edge="1">
          <mxGeometry relative="1" as="geometry">
            <mxPoint x="353" y="342" as="sourcePoint" />
            <mxPoint x="353" y="102" as="targetPoint" />
          </mxGeometry>
        </mxCell>
        <mxCell id="aAf2rK8Xe-hU0H-5XGB--2" value="bpm论证" style="text;html=1;align=center;verticalAlign=middle;resizable=0;points=[];autosize=1;strokeColor=none;fillColor=none;fontSize=16;" parent="1" vertex="1">
          <mxGeometry x="308" y="253" width="90" height="30" as="geometry" />
        </mxCell>
      </root>
    </mxGraphModel>
  </diagram>
</mxfile>
